<svg width="30" height="30" viewBox="0 0 30 30" fill="none" xmlns="http://www.w3.org/2000/svg">
<path d="M15 9.8C17.1539 9.8 18.9 8.05391 18.9 5.9C18.9 3.74609 17.1539 2 15 2C12.8461 2 11.1 3.74609 11.1 5.9C11.1 8.05391 12.8461 9.8 15 9.8ZM15 9.8V28M15 28C11.5522 28 8.24558 26.6304 5.80761 24.1924C3.36964 21.7544 2 18.4478 2 15H5.9M15 28C18.4478 28 21.7544 26.6304 24.1924 24.1924C26.6304 21.7544 28 18.4478 28 15H24.1" stroke="black" stroke-opacity="0.32" stroke-width="3" stroke-linecap="round" stroke-linejoin="round"/>
</svg>
