<svg width="20" height="18" viewBox="0 0 20 18" fill="none" xmlns="http://www.w3.org/2000/svg">
<path d="M9.99984 5.08333C9.99984 4.19928 9.64865 3.35143 9.02353 2.72631C8.39841 2.10119 7.55056 1.75 6.6665 1.75H1.6665V14.25H7.49984C8.16288 14.25 8.79876 14.5134 9.2676 14.9822C9.73645 15.4511 9.99984 16.087 9.99984 16.75M9.99984 5.08333V16.75M9.99984 5.08333C9.99984 4.19928 10.351 3.35143 10.9761 2.72631C11.6013 2.10119 12.4491 1.75 13.3332 1.75H18.3332V14.25H12.4998C11.8368 14.25 11.2009 14.5134 10.7321 14.9822C10.2632 15.4511 9.99984 16.087 9.99984 16.75" stroke="#A4A7AE" stroke-width="2" stroke-linecap="round" stroke-linejoin="round"/>
</svg>
