<svg width="20" height="19" viewBox="0 0 20 19" fill="none" xmlns="http://www.w3.org/2000/svg">
<path d="M14.9998 6.91668H15.8332C16.7172 6.91668 17.5651 7.26787 18.1902 7.89299C18.8153 8.51811 19.1665 9.36595 19.1665 10.25C19.1665 11.1341 18.8153 11.9819 18.1902 12.607C17.5651 13.2322 16.7172 13.5833 15.8332 13.5833H14.9998M14.9998 6.91668H1.6665V14.4167C1.6665 15.3007 2.01769 16.1486 2.64281 16.7737C3.26794 17.3988 4.11578 17.75 4.99984 17.75H11.6665C12.5506 17.75 13.3984 17.3988 14.0235 16.7737C14.6486 16.1486 14.9998 15.3007 14.9998 14.4167V6.91668ZM4.99984 1.08334V3.58334M8.33317 1.08334V3.58334M11.6665 1.08334V3.58334" stroke="#A4A7AE" stroke-width="2" stroke-linecap="round" stroke-linejoin="round"/>
</svg>
