<svg width="20" height="20" viewBox="0 0 20 20" fill="none" xmlns="http://www.w3.org/2000/svg">
<path d="M16.6665 10.25V18.5833H3.33317V10.25M9.99984 18.5833V6.08332M9.99984 6.08332H6.24984C5.6973 6.08332 5.1674 5.86383 4.7767 5.47313C4.386 5.08243 4.1665 4.55252 4.1665 3.99999C4.1665 3.44746 4.386 2.91755 4.7767 2.52685C5.1674 2.13615 5.6973 1.91666 6.24984 1.91666C9.1665 1.91666 9.99984 6.08332 9.99984 6.08332ZM9.99984 6.08332H13.7498C14.3024 6.08332 14.8323 5.86383 15.223 5.47313C15.6137 5.08243 15.8332 4.55252 15.8332 3.99999C15.8332 3.44746 15.6137 2.91755 15.223 2.52685C14.8323 2.13615 14.3024 1.91666 13.7498 1.91666C10.8332 1.91666 9.99984 6.08332 9.99984 6.08332ZM1.6665 6.08332H18.3332V10.25H1.6665V6.08332Z" stroke="#A4A7AE" stroke-width="2" stroke-linecap="round" stroke-linejoin="round"/>
</svg>
