<svg width="18" height="20" viewBox="0 0 18 20" fill="none" xmlns="http://www.w3.org/2000/svg">
<path d="M1.5 4.99999L4 1.66666H14L16.5 4.99999M1.5 4.99999V16.6667C1.5 17.1087 1.67559 17.5326 1.98816 17.8452C2.30072 18.1577 2.72464 18.3333 3.16667 18.3333H14.8333C15.2754 18.3333 15.6993 18.1577 16.0118 17.8452C16.3244 17.5326 16.5 17.1087 16.5 16.6667V4.99999M1.5 4.99999H16.5M12.3333 8.33332C12.3333 9.21738 11.9821 10.0652 11.357 10.6903C10.7319 11.3155 9.88405 11.6667 9 11.6667C8.11594 11.6667 7.2681 11.3155 6.64298 10.6903C6.01786 10.0652 5.66667 9.21738 5.66667 8.33332" stroke="#A4A7AE" stroke-width="2" stroke-linecap="round" stroke-linejoin="round"/>
</svg>
