<svg width="19" height="19" viewBox="0 0 19 19" fill="none" xmlns="http://www.w3.org/2000/svg">
<path d="M11.2501 5.5C11.0974 5.65578 11.0119 5.86521 11.0119 6.08334C11.0119 6.30146 11.0974 6.5109 11.2501 6.66667L12.5835 8C12.7392 8.15269 12.9487 8.23822 13.1668 8.23822C13.3849 8.23822 13.5943 8.15269 13.7501 8L16.8918 4.85834C17.3108 5.78433 17.4377 6.81603 17.2555 7.81596C17.0733 8.81588 16.5907 9.73654 15.872 10.4552C15.1533 11.1739 14.2327 11.6565 13.2327 11.8387C12.2328 12.0209 11.2011 11.894 10.2751 11.475L4.51679 17.2333C4.18527 17.5649 3.73563 17.7511 3.26679 17.7511C2.79795 17.7511 2.34831 17.5649 2.01679 17.2333C1.68527 16.9018 1.49902 16.4522 1.49902 15.9833C1.49902 15.5145 1.68527 15.0649 2.01679 14.7333L7.77512 8.975C7.35609 8.04901 7.22922 7.01731 7.41141 6.01738C7.5936 5.01746 8.0762 4.0968 8.79489 3.3781C9.51359 2.65941 10.4342 2.17681 11.4342 1.99462C12.4341 1.81243 13.4658 1.93931 14.3918 2.35834L11.2585 5.49167L11.2501 5.5Z" stroke="#A4A7AE" stroke-width="2" stroke-linecap="round" stroke-linejoin="round"/>
</svg>
