<svg width="20" height="20" viewBox="0 0 20 20" fill="none" xmlns="http://www.w3.org/2000/svg">
<path d="M1 4.59988H3M3 4.59988H19M3 4.59988V17.1999C3 17.6773 3.21071 18.1351 3.58579 18.4727C3.96086 18.8102 4.46957 18.9999 5 18.9999H15C15.5304 18.9999 16.0391 18.8102 16.4142 18.4727C16.7893 18.1351 17 17.6773 17 17.1999V4.59988H3ZM6 4.59988V2.79988C6 2.32249 6.21071 1.86465 6.58579 1.52709C6.96086 1.18952 7.46957 0.999878 8 0.999878H12C12.5304 0.999878 13.0391 1.18952 13.4142 1.52709C13.7893 1.86465 14 2.32249 14 2.79988V4.59988M8 9.09988V14.4999M12 9.09988V14.4999" stroke="#FDFDFD" stroke-width="2" stroke-linecap="round" stroke-linejoin="round"/>
</svg>